#N canvas 17 25 759 441 10;
#X obj 59 395 dac~;
#X obj 140 274 unpack f f f;
#X msg 180 96 400 1900 2550;
#X msg 180 74 280 2250 2900;
#X msg 180 117 550 1770 2490;
#X obj 130 312 bp~ 1 34;
#X obj 65 313 bp~ 1 34;
#X obj 2 313 bp~ 1 34;
#X msg 180 139 690 1660 2490;
#X msg 180 161 640 1190 2390;
#X msg 180 183 310 870 2250;
#X msg 180 205 450 1030 2380;
#X msg 180 227 500 1500 2500;
#X msg 180 249 710 1100 2640;
#X msg 87 4 i;
#X msg 118 4 I;
#X msg 149 4 E;
#X msg 180 4 ae;
#X msg 211 4 ^;
#X msg 242 4 u;
#X msg 272 4 U;
#X msg 301 4 &;
#X msg 331 4 A;
#X obj 180 45 route i I E ae ^ u U & A;
#X obj 49 248 -~ 0.5;
#X obj 64 343 *~ 1;
#X obj 401 280 bp~ 1 34;
#X obj 465 242 -~ 0.5;
#X obj 495 276 bp~ 1 34;
#X obj 630 295 bp~ 1 34;
#X obj 463 310 *~ 0.3;
#X floatatom 530 144 5 0 0 0 - - -;
#X obj 468 76 phasor~ 100;
#X obj 636 69 sig~ 1;
#X obj 636 193 /~;
#X obj 652 152 *~;
#X obj 652 173 +~ 1;
#X obj 652 110 osc~;
#X obj 652 89 sig~ 50;
#X obj 652 131 *~ 24;
#X floatatom 668 40 5 0 0 0 - - -;
#X obj 46 176 pink~;
#X connect 1 0 7 1;
#X connect 1 1 6 1;
#X connect 1 2 5 1;
#X connect 2 0 1 0;
#X connect 3 0 1 0;
#X connect 4 0 1 0;
#X connect 5 0 25 0;
#X connect 6 0 25 0;
#X connect 7 0 25 0;
#X connect 8 0 1 0;
#X connect 9 0 1 0;
#X connect 10 0 1 0;
#X connect 11 0 1 0;
#X connect 12 0 1 0;
#X connect 13 0 1 0;
#X connect 14 0 23 0;
#X connect 15 0 23 0;
#X connect 16 0 23 0;
#X connect 17 0 23 0;
#X connect 18 0 23 0;
#X connect 19 0 23 0;
#X connect 20 0 23 0;
#X connect 21 0 23 0;
#X connect 22 0 23 0;
#X connect 23 0 3 0;
#X connect 23 1 2 0;
#X connect 23 2 4 0;
#X connect 23 3 8 0;
#X connect 23 4 9 0;
#X connect 23 5 10 0;
#X connect 23 6 11 0;
#X connect 23 7 12 0;
#X connect 23 8 13 0;
#X connect 24 0 5 0;
#X connect 24 0 6 0;
#X connect 24 0 7 0;
#X connect 25 0 0 0;
#X connect 25 0 0 1;
#X connect 26 0 30 0;
#X connect 27 0 26 0;
#X connect 27 0 28 0;
#X connect 28 0 30 0;
#X connect 31 0 26 1;
#X connect 32 0 27 0;
#X connect 33 0 34 0;
#X connect 35 0 36 0;
#X connect 36 0 34 1;
#X connect 37 0 39 0;
#X connect 38 0 37 0;
#X connect 39 0 35 0;
#X connect 39 0 35 1;
#X connect 40 0 38 0;
#X connect 41 0 24 0;
