#N canvas 0 0 1011 710 10;
#X obj 214 91 sig~;
#X obj 227 554 dac~;
#X obj 208 413 *~;
#X obj 203 30 hsl 128 15 0 0.5 0 0 empty empty empty -2 -6 0 8 -262144
-1 -1 12700 1;
#X obj 235 213 cos~;
#X obj 263 87 *~ 0.5;
#X obj 273 118 -~ 0.25;
#X obj 247 246 *~;
#X obj 248 274 *~;
#X obj 248 298 *~;
#X obj 249 326 *~;
#X obj 272 163 lop~ 1;
#X obj 138 362 osc~;
#X obj 215 506 *~ 0.2;
#X obj 61 161 hsl 128 15 0 400 0 0 empty empty empty -2 -6 0 8 -262144
-1 -1 2900 1;
#X obj 66 199 hsl 128 15 0 2000 0 0 empty empty empty -2 -6 0 8 -262144
-1 -1 500 1;
#X obj 93 481 cos~;
#X obj 165 390 osc~;
#X obj 157 313 *~ 20;
#X obj 184 341 *~ 30;
#X obj 95 516 *~;
#X obj 96 544 *~;
#X obj 96 568 *~;
#X obj 98 425 *~;
#X obj 137 441 sqrt~;
#X obj 46 445 sqrt~;
#X obj 48 340 *~ 0.1;
#X obj 296 397 vcf~ 1 1;
#X obj 309 344 +~ 500;
#X obj 306 318 *~ 3000;
#X msg 348 366 2;
#X obj 225 471 vd~ a1;
#X obj 312 430 delwrite~ a1 2000;
#X obj 487 89 sig~;
#X obj 487 42 hsl 128 15 0 0.5 0 0 empty empty empty -2 -6 0 8 -262144
-1 -1 2600 1;
#X obj 452 401 +~ 1000;
#X obj 449 378 *~ 600;
#X obj 376 82 pipe 1000;
#X obj 495 160 sig~ 1;
#X obj 510 189 -~;
#X obj 449 428 lop~ 0.3;
#X text -8 13 engine passes;
#X obj 522 250 *~;
#X connect 0 0 5 0;
#X connect 2 0 27 0;
#X connect 4 0 7 0;
#X connect 4 0 7 1;
#X connect 5 0 6 0;
#X connect 6 0 11 0;
#X connect 7 0 8 0;
#X connect 7 0 8 1;
#X connect 7 0 18 0;
#X connect 8 0 9 0;
#X connect 8 0 9 1;
#X connect 8 0 19 0;
#X connect 9 0 10 0;
#X connect 9 0 10 1;
#X connect 10 0 2 1;
#X connect 11 0 4 0;
#X connect 11 0 29 0;
#X connect 12 0 23 0;
#X connect 12 0 25 0;
#X connect 13 0 1 0;
#X connect 13 0 1 1;
#X connect 14 0 19 1;
#X connect 15 0 18 1;
#X connect 16 0 20 0;
#X connect 16 0 20 1;
#X connect 17 0 23 1;
#X connect 17 0 24 0;
#X connect 18 0 12 0;
#X connect 19 0 17 0;
#X connect 20 0 21 0;
#X connect 20 0 21 1;
#X connect 21 0 22 0;
#X connect 21 0 22 1;
#X connect 22 0 2 0;
#X connect 23 0 26 0;
#X connect 24 0 16 0;
#X connect 25 0 16 0;
#X connect 26 0 16 0;
#X connect 27 0 32 0;
#X connect 28 0 27 1;
#X connect 29 0 28 0;
#X connect 30 0 27 2;
#X connect 31 0 13 0;
#X connect 33 0 39 1;
#X connect 34 0 37 0;
#X connect 34 0 0 0;
#X connect 35 0 40 0;
#X connect 36 0 35 0;
#X connect 37 0 33 0;
#X connect 38 0 39 0;
#X connect 39 0 42 0;
#X connect 39 0 42 1;
#X connect 40 0 31 0;
#X connect 42 0 36 0;
