#N canvas 208 196 566 514 10;
#X obj 194 488 dac~;
#X obj 67 236 +~ 1000;
#X obj 174 237 +~ 2000;
#X obj 175 180 osc~ 333;
#X obj 68 180 osc~ 448;
#X obj 194 96 hsl 64 12 0 1 0 1 empty empty empty -2 -6 0 8 -262144
-1 -1 100 1;
#X obj 186 128 * 1000;
#X obj 274 96 hsl 64 12 0 1 0 1 empty empty empty -2 -6 0 8 -262144
-1 -1 100 1;
#X obj 266 128 * 1000;
#X obj 53 68 hsl 64 12 0 1 0 1 empty empty empty -2 -6 0 8 -262144
-1 -1 200 1;
#X obj 45 100 * 1000;
#X obj 401 96 hsl 64 12 0 1 0 1 empty empty empty -2 -6 0 8 -262144
-1 -1 1000 1;
#X obj 393 128 * 1000;
#X obj 194 462 cos~;
#X obj 228 427 -~;
#X obj 130 68 hsl 64 12 0 1 0 1 empty empty empty -2 -6 0 8 -262144
-1 -1 300 1;
#X obj 122 100 * 1000;
#X obj 229 406 *~ 0.8;
#X obj 349 315 hsl 64 12 0 1 0 1 empty empty empty -2 -6 0 8 -262144
-1 -1 300 1;
#X obj 345 348 * 10;
#X obj 144 349 *~ 0.5;
#X obj 69 207 *~ 100;
#X obj 175 207 *~ 100;
#X obj 176 303 cos~;
#X obj 105 303 cos~;
#X connect 1 0 24 0;
#X connect 2 0 23 0;
#X connect 3 0 22 0;
#X connect 4 0 21 0;
#X connect 5 0 6 0;
#X connect 6 0 1 1;
#X connect 7 0 8 0;
#X connect 8 0 2 1;
#X connect 9 0 10 0;
#X connect 10 0 4 0;
#X connect 11 0 14 1;
#X connect 13 0 0 0;
#X connect 14 0 13 0;
#X connect 15 0 16 0;
#X connect 16 0 3 0;
#X connect 17 0 14 0;
#X connect 18 0 19 0;
#X connect 19 0 17 1;
#X connect 20 0 17 0;
#X connect 21 0 1 0;
#X connect 22 0 2 0;
#X connect 23 0 20 0;
#X connect 24 0 20 0;
