#N canvas 0 0 1253 920 10;
#X obj 342 491 osc~;
#X obj 266 502 delta~;
#X obj 315 616 *~;
#X obj 360 734 dac~;
#X obj 265 74 metro 3;
#X msg 265 49 1;
#X obj 264 148 pack 1 5;
#X msg 294 49 0;
#X text 259 23 stream try 3;
#X obj 520 23 noise~;
#X obj 371 126 samphold~;
#X obj 538 590 hsl 128 15 0.05 5 1 0 empty empty empty -2 -6 0 8 -262144
-1 -1 8300 1;
#X obj 370 376 +~ 1000;
#N canvas 0 0 450 300 grapha 0;
#X obj 100 100 cnv 15 100 100 empty empty empty 20 12 0 14 -262144
-66577 0;
#N canvas 0 0 450 300 graph3 0;
#X array A 100 float 0;
#X coords 0 1 99 -1 100 100 1;
#X restore 100 100 graph;
#X obj 210 209 tabwrite~ A;
#X obj 289 155 inlet~;
#X obj 210 130 loadbang;
#X obj 278 131 bng 15 250 50 0 empty empty empty 0 -6 0 8 -262144 -1
-1;
#X obj 217 178 s b;
#X obj 210 155 metro 200;
#X connect 3 0 2 0;
#X connect 4 0 7 0;
#X connect 5 0 7 0;
#X connect 7 0 2 0;
#X connect 7 0 6 0;
#X coords 0 -1 1 1 100 100 1 100 100;
#X restore 939 125 pd grapha;
#N canvas 0 0 450 300 grapha 0;
#X obj 100 100 cnv 15 100 100 empty empty empty 20 12 0 14 -262144
-66577 0;
#N canvas 0 0 450 300 graph3 0;
#X array B 100 float 0;
#X coords 0 1 99 -1 100 100 1;
#X restore 100 100 graph;
#X obj 289 155 inlet~;
#X obj 210 182 tabwrite~ B;
#X obj 210 156 r b;
#X connect 2 0 3 0;
#X connect 4 0 3 0;
#X coords 0 -1 1 1 100 100 1 100 100;
#X restore 940 242 pd grapha;
#N canvas 0 0 450 300 grapha 0;
#X obj 100 100 cnv 15 100 100 empty empty empty 20 12 0 14 -262144
-66577 0;
#N canvas 0 0 450 300 graph3 0;
#X array C 100 float 0;
#X coords 0 1 99 -1 100 100 1;
#X restore 100 100 graph;
#X obj 289 155 inlet~;
#X obj 210 156 r b;
#X obj 210 182 tabwrite~ C;
#X connect 2 0 4 0;
#X connect 3 0 4 0;
#X coords 0 -1 1 1 100 100 1 100 100;
#X restore 942 358 pd grapha;
#X obj 369 352 *~ 1000;
#X obj 250 588 *~ 0.01;
#X obj 334 691 *~;
#X obj 443 331 hsl 128 15 0 20000 0 0 empty empty empty -2 -6 0 8 -262144
-1 -1 3200 1;
#X obj 441 352 hsl 128 15 0 5000 0 0 empty empty empty -2 -6 0 8 -262144
-1 -1 1000 1;
#X obj 421 554 hsl 128 15 0.1 10 1 0 empty empty empty -2 -6 0 8 -262144
-1 -1 5600 1;
#X obj 272 450 *~;
#X obj 206 250 hsl 128 15 0.03 3 1 1 empty empty empty -2 -6 0 8 -262144
-1 -1 11100 1;
#X obj 78 443 hsl 128 15 0.03 3 1 1 empty empty empty -2 -6 0 8 -262144
-1 -1 5300 1;
#X obj 264 126 + 400;
#X obj 264 102 random 1000;
#X obj 583 -41 hsl 128 15 0.05 50 1 0 empty empty empty -2 -6 0 8 -262144
-1 -1 9200 1;
#X obj 582 394 hsl 128 15 0.03 30 1 1 empty empty empty -2 -6 0 8 -262144
-1 -1 1600 1;
#X obj 367 407 *~;
#X obj 518 52 hip~ 40;
#X obj 519 77 hip~ 40;
#X obj 316 668 *~ 45;
#X obj 554 131 bp~ 15 7;
#X obj 267 524 max~ 0;
#X obj 266 546 min~ 1;
#X obj 595 100 + 2;
#X obj 297 414 *~;
#X obj 287 364 *~ 0.01;
#X obj 360 183 hsl 128 15 0.005 0.5 1 1 empty empty empty -2 -6 0 8
-262144 -1 -1 2200 1;
#X obj 315 637 hip~ 200;
#X obj 367 458 pow~;
#X obj 357 430 sig~ 2;
#X obj 272 473 lop~ 60;
#X connect 0 0 2 1;
#X connect 1 0 34 0;
#X connect 2 0 40 0;
#X connect 4 0 26 0;
#X connect 5 0 4 0;
#X connect 7 0 4 0;
#X connect 9 0 30 0;
#X connect 11 0 18 1;
#X connect 12 0 38 0;
#X connect 12 0 29 0;
#X connect 16 0 12 0;
#X connect 17 0 2 0;
#X connect 18 0 3 0;
#X connect 18 0 3 1;
#X connect 19 0 16 1;
#X connect 20 0 12 1;
#X connect 22 0 43 0;
#X connect 23 0 22 1;
#X connect 24 0 17 1;
#X connect 25 0 6 0;
#X connect 26 0 25 0;
#X connect 27 0 30 1;
#X connect 27 0 31 1;
#X connect 27 0 36 0;
#X connect 28 0 29 1;
#X connect 29 0 41 1;
#X connect 30 0 31 0;
#X connect 31 0 33 0;
#X connect 32 0 18 0;
#X connect 33 0 16 0;
#X connect 34 0 35 0;
#X connect 35 0 17 0;
#X connect 36 0 33 1;
#X connect 37 0 22 0;
#X connect 38 0 37 0;
#X connect 38 0 37 1;
#X connect 39 0 38 1;
#X connect 40 0 32 0;
#X connect 41 0 0 0;
#X connect 42 0 41 0;
#X connect 43 0 1 0;
