#N canvas 34 47 847 400 16;
#X obj 151 33 osc~ 480;
#X obj 177 70 osc~ 620;
#X obj 148 106 +~;
#X obj 246 232 dac~;
#X obj 252 153 *~;
#X obj 325 40 *~ 10000;
#X obj 325 69 clip~ 0 1;
#X obj 324 10 osc~ 2;
#X obj 255 193 *~ 0.1;
#X obj 582 271 *~;
#X obj 576 350 dac~;
#X obj 585 311 *~ 0.1;
#X obj 665 33 t b b;
#X obj 666 4 bng 15 250 50 0 empty empty empty 17 7 0 10 -262144 -1
-1;
#X obj 710 86 del 500;
#X obj 560 187 osc~ 600;
#X obj 681 180 vline~;
#X msg 714 115 0 300;
#X msg 640 112 1 10;
#X connect 0 0 2 0;
#X connect 1 0 2 1;
#X connect 2 0 4 0;
#X connect 4 0 8 0;
#X connect 5 0 6 0;
#X connect 6 0 4 1;
#X connect 7 0 5 0;
#X connect 8 0 3 0;
#X connect 8 0 3 1;
#X connect 9 0 11 0;
#X connect 11 0 10 0;
#X connect 11 0 10 1;
#X connect 12 0 18 0;
#X connect 12 1 14 0;
#X connect 13 0 12 0;
#X connect 14 0 17 0;
#X connect 15 0 9 0;
#X connect 16 0 9 1;
#X connect 17 0 16 0;
#X connect 18 0 16 0;
