#N canvas 71 364 483 392 10;
#X obj 127 311 hip~ 40;
#X obj 127 334 outlet~;
#X obj 105 26 inlet trigger;
#X obj 127 265 *~;
#X obj 127 173 expcurve~ 200;
#X obj 127 219 phasor~;
#X obj 127 242 cos~;
#X obj 127 196 *~;
#X obj 127 288 *~ 0.2;
#X obj 127 103 * 2000;
#X obj 183 197 del 110;
#X obj 237 95 inlet base;
#X obj 126 124 +;
#X obj 238 118 * 8000;
#X obj 183 218 adenv2~ 10 80;
#X obj 105 60 t b f f b f;
#X floatatom 197 79 5 0 0 0 - - -;
#X connect 0 0 1 0;
#X connect 2 0 15 0;
#X connect 3 0 8 0;
#X connect 4 0 7 0;
#X connect 5 0 6 0;
#X connect 6 0 3 0;
#X connect 7 0 5 0;
#X connect 8 0 0 0;
#X connect 9 0 12 0;
#X connect 10 0 14 0;
#X connect 11 0 13 0;
#X connect 12 0 7 1;
#X connect 13 0 12 1;
#X connect 14 0 3 1;
#X connect 15 0 4 0;
#X connect 15 1 9 0;
#X connect 15 3 10 0;
#X connect 15 4 14 1;
#X connect 15 4 16 0;
