#N canvas 162 158 531 410 10;
#X obj 191 348 dac~;
#X obj 6 14 bng 15 250 50 0 empty empty fill-em-up 0 -6 1 8 -262144
-1 -1;
#N canvas 339 168 626 552 bubblefactory 0;
#X obj 113 55 tgl 15 0 empty empty empty 0 -6 0 8 -262144 -1 -1 1 1
;
#N canvas 0 0 744 849 bubble 0;
#X obj 60 475 osc~;
#X obj 60 514 *~;
#X obj 30 61 inlet;
#X obj 60 539 outlet~;
#N canvas 231 126 209 211 env4pow 0;
#X obj 54 61 vline~;
#X obj 53 87 *~;
#X obj 53 112 *~;
#X obj 5 149 -~;
#X obj 5 173 outlet~;
#X msg 54 34 1 0 0 \, 0 \$1 0;
#X obj 54 10 inlet;
#X obj 4 111 sig~ 1;
#X obj 63 173 outlet~;
#X connect 0 0 1 0;
#X connect 0 0 1 1;
#X connect 1 0 2 0;
#X connect 1 0 2 1;
#X connect 2 0 3 1;
#X connect 2 0 8 0;
#X connect 3 0 4 0;
#X connect 5 0 0 0;
#X connect 6 0 5 0;
#X connect 7 0 3 0;
#X restore 60 395 pd env4pow;
#X obj 30 83 unpack f f;
#X obj 125 417 *~;
#X obj 30 240 swap 1;
#X obj 124 439 lop~ 120;
#X obj 30 263 /;
#X obj 30 189 + 0.4;
#X obj 124 465 *~;
#X obj 186 395 swap 1;
#X obj 186 418 -;
#X obj 30 168 t f f f;
#X obj 186 439 + 0.1;
#X obj 141 179 / 3;
#X obj 141 199 + 0.6;
#X obj 60 440 +~;
#X obj 60 417 *~ 2000;
#X obj 306 88 inlet base;
#X obj 306 138 * 2;
#X obj 76 274 *;
#X obj 76 296 +;
#X obj 306 113 * 800;
#X obj 225 128 swap 1;
#X obj 226 153 -;
#X obj 29 287 *;
#X obj 224 177 * 80;
#X obj 33 352 expcurve~ 200;
#X connect 0 0 1 0;
#X connect 1 0 3 0;
#X connect 2 0 5 0;
#X connect 4 1 6 0;
#X connect 5 0 14 0;
#X connect 5 1 16 0;
#X connect 6 0 8 0;
#X connect 7 0 9 0;
#X connect 7 1 9 1;
#X connect 8 0 11 0;
#X connect 9 0 27 0;
#X connect 10 0 7 0;
#X connect 11 0 1 1;
#X connect 12 0 13 0;
#X connect 12 1 13 1;
#X connect 13 0 15 0;
#X connect 14 0 10 0;
#X connect 14 1 22 0;
#X connect 14 2 12 0;
#X connect 15 0 11 1;
#X connect 16 0 17 0;
#X connect 17 0 6 1;
#X connect 18 0 0 0;
#X connect 19 0 18 0;
#X connect 20 0 24 0;
#X connect 20 0 25 0;
#X connect 21 0 22 1;
#X connect 22 0 23 0;
#X connect 23 0 18 1;
#X connect 24 0 21 0;
#X connect 24 0 23 1;
#X connect 25 0 26 0;
#X connect 25 1 26 0;
#X connect 26 0 28 0;
#X connect 27 0 29 0;
#X connect 27 0 4 0;
#X connect 28 0 27 1;
#X connect 29 0 19 0;
#X restore 398 409 pd bubble;
#X obj 275 158 random 1000;
#X obj 275 181 / 1000;
#X obj 190 158 random 1000;
#X obj 190 181 / 1000;
#X obj 0 137 random 100;
#X obj 113 75 metro 20;
#X obj 0 182 > 70;
#X obj 339 322 inlet average pitch;
#X obj 135 55 loadbang;
#X obj 205 514 outlet~;
#X obj 23 158 inlet bubble intensity;
#X obj 0 249 f;
#X obj 30 249 + 1;
#X obj 0 274 mod 4;
#X obj 113 101 t b b b b;
#X obj 0 211 sel 1;
#X obj 204 374 route 0 1 2 3;
#X obj 0 301 pack f f f;
#X obj 194 437 bubblesound2;
#X connect 0 0 7 0;
#X connect 1 0 11 0;
#X connect 2 0 3 0;
#X connect 3 0 19 2;
#X connect 4 0 5 0;
#X connect 5 0 19 1;
#X connect 6 0 8 0;
#X connect 7 0 16 0;
#X connect 8 0 17 0;
#X connect 9 0 1 1;
#X connect 9 0 20 1;
#X connect 10 0 7 0;
#X connect 12 0 8 1;
#X connect 13 0 14 0;
#X connect 13 0 15 0;
#X connect 14 0 13 1;
#X connect 15 0 19 0;
#X connect 16 0 6 0;
#X connect 16 1 4 0;
#X connect 16 2 2 0;
#X connect 17 0 13 0;
#X connect 18 0 1 0;
#X connect 19 0 18 0;
#X connect 20 0 11 0;
#X restore 191 274 pd bubblefactory;
#X obj 6 85 line;
#X obj 6 35 trigger bang bang;
#X msg 6 61 0 \, 1 9000;
#X obj 6 106 s bubblesize;
#X obj 298 253 r bubblesize;
#X obj 191 296 *~ 0.05;
#X obj 164 234 nbx 5 14 -1e+37 1e+37 0 0 empty empty empty 0 -6 0 10
-262144 -1 -1 27 256;
#X obj 191 321 *~ 4;
#X connect 1 0 4 0;
#X connect 2 0 8 0;
#X connect 3 0 6 0;
#X connect 4 0 5 0;
#X connect 5 0 3 0;
#X connect 7 0 2 1;
#X connect 8 0 10 0;
#X connect 9 0 2 0;
#X connect 10 0 0 0;
#X connect 10 0 0 1;
